<?xml version="1.0" encoding="utf-8"?>
<!-- Generator: Adobe Illustrator 26.0.3, SVG Export Plug-In . SVG Version: 6.00 Build 0)  -->
<svg version="1.1" id="Capa_1" xmlns="http://www.w3.org/2000/svg" xmlns:xlink="http://www.w3.org/1999/xlink" x="0px" y="0px"
	 viewBox="0 0 150 48.61" style="enable-background:new 0 0 150 48.61;" xml:space="preserve">
<style type="text/css">
	.st0{fill:#314080;}
</style>
<g id="Grupo_154" transform="translate(141.202 33.072)">
	<path id="Trazado_336" class="st0" d="M-134.98-13.31c-3.94,3.3-4.91,8.64-2.16,11.91s8.17,3.26,12.11-0.04s4.91-8.64,2.16-11.92
		S-131.04-16.62-134.98-13.31 M-125.24-3.04c-3.16,2.65-7.5,2.66-9.7,0.03s-1.43-6.9,1.73-9.55c3.16-2.65,7.5-2.66,9.7-0.03
		S-122.07-5.7-125.24-3.04"/>
	<path id="Trazado_337" class="st0" d="M-132.79-12.2c-2.87,2.41-3.57,6.29-1.57,8.68c2,2.39,5.95,2.38,8.82-0.03
		c2.87-2.4,3.58-6.29,1.58-8.68S-129.92-14.6-132.79-12.2 M-125.69-4.72c-2.31,1.93-5.47,1.94-7.07,0.02
		c-1.6-1.92-1.04-5.02,1.27-6.95c2.3-1.93,5.46-1.94,7.06-0.02C-122.83-9.76-123.39-6.64-125.69-4.72"/>
	<path id="Trazado_338" class="st0" d="M-121.51-15.43c3.03,3.02,8.43,2.5,12.05-1.15s4.09-9.05,1.05-12.06s-8.43-2.5-12.05,1.16
		S-124.54-18.43-121.51-15.43 M-120.69-16c-2.43-2.41-2.05-6.74,0.85-9.66s7.22-3.34,9.65-0.92c2.43,2.42,2.06,6.74-0.84,9.66
		S-118.26-13.58-120.69-16"/>
	<path id="Trazado_339" class="st0" d="M-120.29-16.42c2.21,2.19,6.15,1.81,8.78-0.84c2.64-2.66,2.98-6.59,0.76-8.79
		s-6.14-1.82-8.78,0.84C-122.16-22.55-122.51-18.62-120.29-16.42 M-119.69-16.84c-1.78-1.75-1.5-4.91,0.61-7.04
		c2.11-2.13,5.26-2.43,7.03-0.67c1.77,1.76,1.5,4.91-0.62,7.04C-114.77-15.38-117.92-15.08-119.69-16.84"/>
	<path id="Trazado_340" class="st0" d="M-127.33-26.83c-2.53-2.59-6.33-2.98-8.48-0.88s-1.85,5.9,0.68,8.5s6.32,2.98,8.48,0.88
		S-124.81-24.24-127.33-26.83 M-134.02-19.45c-2.03-2.07-2.27-5.12-0.54-6.81s4.76-1.37,6.79,0.7c2.02,2.07,2.27,5.12,0.54,6.81
		C-128.96-17.05-132-17.37-134.02-19.45"/>
	<path id="Trazado_341" class="st0" d="M-128-25.23c-1.84-1.89-4.61-2.17-6.17-0.64c-1.57,1.54-1.35,4.3,0.49,6.19
		c1.84,1.89,4.6,2.17,6.18,0.64C-125.93-20.57-126.16-23.35-128-25.23 M-132.88-19.85c-1.47-1.51-1.65-3.73-0.4-4.96
		c1.26-1.23,3.48-1,4.95,0.51c1.47,1.51,1.65,3.73,0.39,4.96C-129.19-18.11-131.4-18.34-132.88-19.85"/>
	<path id="Trazado_342" class="st0" d="M-119.24-10.68c-1.95,2.29-1.3,6.05,1.45,8.39c2.75,2.34,6.57,2.39,8.52,0.1
		c1.95-2.29,1.3-6.05-1.45-8.4S-117.29-12.97-119.24-10.68 M-118.8-10.14c1.56-1.83,4.62-1.8,6.83,0.08
		c2.2,1.88,2.73,4.89,1.16,6.73c-1.57,1.84-4.62,1.8-6.83-0.07C-119.84-5.28-120.36-8.3-118.8-10.14"/>
	<path id="Trazado_343" class="st0" d="M-118.48-9.88c-1.42,1.67-0.95,4.41,1.06,6.12s4.78,1.74,6.21,0.07
		c1.42-1.67,0.95-4.41-1.06-6.12C-114.27-11.53-117.06-11.56-118.48-9.88 M-118.15-9.49c1.14-1.34,3.37-1.31,4.97,0.06
		c1.61,1.37,1.99,3.57,0.85,4.9c-1.14,1.33-3.37,1.31-4.97-0.06C-118.91-5.96-119.29-8.15-118.15-9.49"/>
	<path id="Trazado_344" class="st0" d="M-56.75-14.44c0-2.37,1.44-4.71,4.96-4.71s4.96,2.34,4.96,4.71c0,3.53-2.54,4.73-4.96,4.73
		S-56.75-10.92-56.75-14.44 M-48.91-14.48c0.04-1.59-1.22-2.91-2.81-2.95c-1.59-0.04-2.91,1.22-2.95,2.81c0,0.05,0,0.09,0,0.14
		c0,1.88,1.05,3.02,2.88,3.02C-49.97-11.46-48.91-12.59-48.91-14.48"/>
	<path id="Trazado_345" class="st0" d="M-29.6-17.29c-0.39-1.11-1.4-2.06-4.35-2.06c-1.64,0-3.29,0.41-3.29,1.55
		c0,0.53,0.3,1.09,2.78,1.4l2.94,0.44c2.78,0.42,4.42,1.5,4.42,3.58c0,2.93-2.8,4.02-6.11,4.02c-5.32,0-6.62-2.63-6.91-3.56
		l2.33-0.73c0.45,0.9,1.37,2.22,4.64,2.22c1.98,0,3.62-0.65,3.62-1.72c0-0.8-0.92-1.33-2.69-1.55l-2.97-0.41
		c-2.87-0.39-4.47-1.64-4.47-3.53c0-3.72,4.83-3.72,5.78-3.72c5.34,0,6.26,2.47,6.57,3.33L-29.6-17.29z"/>
	<path id="Trazado_346" class="st0" d="M-92.52-17.29c-0.39-1.11-1.4-2.06-4.35-2.06c-1.64,0-3.29,0.41-3.29,1.55
		c0,0.53,0.3,1.09,2.78,1.4l2.93,0.44c2.78,0.42,4.42,1.5,4.42,3.58c0,2.93-2.8,4.02-6.11,4.02c-5.32,0-6.62-2.63-6.91-3.56
		l2.34-0.73c0.44,0.9,1.36,2.22,4.64,2.22c1.98,0,3.62-0.65,3.62-1.72c0-0.8-0.92-1.33-2.69-1.55l-2.97-0.41
		c-2.87-0.39-4.47-1.64-4.47-3.53c0-3.72,4.83-3.72,5.78-3.72c5.34,0,6.26,2.47,6.57,3.33L-92.52-17.29z"/>
	<path id="Trazado_347" class="st0" d="M-80.25-10.03l-2.04,0.01c0,0,0-0.73,0-0.89c-1.16,0.74-2.49,1.15-3.87,1.19
		c-1.17,0-3.43-0.5-3.43-2.67c0-2.98,4.45-3.41,7.3-3.57v-0.39c0-0.68-0.61-1.16-2.29-1.16c-1.88,0-2.27,0.69-2.39,1.17h-2.13
		c0.5-2.4,2.85-2.82,4.5-2.82c4.27,0,4.35,2.08,4.35,3.3V-10.03z M-82.3-14.48c-1.07,0.04-2.14,0.19-3.18,0.44
		c-1.27,0.3-1.86,0.73-1.88,1.5c-0.02,0.76,0.48,1.23,1.48,1.23c1.27-0.04,2.51-0.44,3.57-1.15V-14.48z"/>
	<path id="Trazado_348" class="st0" d="M-79.5-18.86h2.01v1.1c0.84-0.93,2.05-1.44,3.31-1.4c1.85,0,3.46,0.77,3.46,3.48v5.67h-2.04
		v-4.91c0-1.75-0.53-2.49-1.9-2.49c-1.1-0.08-2.16,0.41-2.8,1.3v6.1h-2.04L-79.5-18.86z"/>
	<rect id="Rectángulo_33" x="-16.35" y="-21.54" class="st0" width="2.04" height="11.98"/>
	<path id="Trazado_349" class="st0" d="M-4.64-10.01h-2.01v-1.11c-0.84,0.94-2.06,1.45-3.31,1.4c-1.84,0-3.46-0.78-3.46-3.48v-5.66
		h2.05v4.91c0,1.74,0.52,2.49,1.89,2.49c1.1,0.08,2.16-0.41,2.81-1.3v-6.1h2.04L-4.64-10.01z"/>
	<path id="Trazado_350" class="st0" d="M4.18-11.15C3.26-10.2,1.99-9.68,0.67-9.71c-2.51,0.07-4.6-1.91-4.67-4.42
		c0-0.12,0-0.24,0-0.36c-0.11-2.46,1.8-4.55,4.26-4.66c0.16-0.01,0.32-0.01,0.48,0c1.24-0.02,2.45,0.41,3.39,1.22v-4.05h2.04v11.98
		H4.18V-11.15z M4.14-16.19c-0.79-0.77-1.85-1.2-2.95-1.22c-1.61-0.1-3.01,1.12-3.11,2.74c-0.01,0.08-0.01,0.17-0.01,0.25
		c-0.05,1.59,1.2,2.92,2.8,2.97c0.09,0,0.17,0,0.26,0c1.13-0.05,2.2-0.5,3.01-1.29L4.14-16.19z"/>
	<path id="Trazado_351" class="st0" d="M-17.23-10.03l-2.04,0.01c0,0,0-0.73,0-0.89c-1.16,0.74-2.5,1.15-3.87,1.19
		c-1.17,0-3.43-0.5-3.43-2.67c0-2.98,4.45-3.41,7.3-3.57v-0.39c0-0.68-0.61-1.16-2.29-1.16c-1.88,0-2.27,0.69-2.39,1.17h-2.12
		c0.49-2.4,2.85-2.82,4.5-2.82c4.26,0,4.35,2.08,4.35,3.3L-17.23-10.03z M-19.27-14.48c-1.07,0.04-2.14,0.19-3.18,0.44
		c-1.27,0.3-1.87,0.73-1.88,1.5c-0.02,0.76,0.48,1.23,1.48,1.23c1.28-0.04,2.51-0.44,3.57-1.15V-14.48z"/>
	<path id="Trazado_352" class="st0" d="M-58.94-12.37c-0.89,1.32-2.42,2.05-4,1.94c-2.66,0-4.72-1.5-4.72-4.35
		c0-2.58,1.43-4.5,4.86-4.5c2.59,0,3.62,1.39,3.92,2l2.18-0.76c-0.56-1.29-2.06-3.33-6.23-3.33c-4.93,0-7.2,2.69-7.2,6.31
		c0,4.52,3.09,6.7,7.01,6.7c4.1,0,5.76-1.73,6.45-3.22L-58.94-12.37z"/>
	<path id="Trazado_353" class="st0" d="M-40.6-19.11c-0.18-0.02-0.36-0.04-0.53-0.04c-1.25-0.08-2.44,0.55-3.09,1.62h-0.05v-1.32
		h-2.04v8.85h2.04v-4.7c0.02-0.62,0.02-2.37,2.62-2.37c0.35,0,0.71,0.04,1.05,0.12L-40.6-19.11z"/>
	<rect id="Rectángulo_34" x="-138.7" y="9.41" class="st0" width="64.58" height="0.58"/>
	<path id="Trazado_354" class="st0" d="M-65.32,11.43c-0.54,0.27-1.14,0.41-1.75,0.4c-1.21,0-2.19-0.98-2.19-2.19
		s0.98-2.19,2.19-2.19l0,0c0.6-0.04,1.2,0.15,1.66,0.54l-0.65,0.71c-0.26-0.28-0.63-0.42-1.01-0.39c-0.74,0.03-1.32,0.65-1.3,1.39
		c0.02,0.71,0.59,1.27,1.3,1.3c0.3,0.01,0.6-0.07,0.87-0.21V10.1h-0.75V9.25h1.63V11.43z"/>
	<path id="Trazado_355" class="st0" d="M-64.63,8.86h0.88v0.46h0.01c0.14-0.33,0.47-0.54,0.82-0.53c0.1,0,0.2,0.01,0.3,0.03v0.81
		c-0.12-0.04-0.25-0.06-0.38-0.06c-0.67,0-0.76,0.39-0.76,0.96v1.2h-0.88V8.86z"/>
	<path id="Trazado_356" class="st0" d="M-59.47,11.73h-0.85v-0.39h-0.01c-0.17,0.3-0.49,0.47-0.84,0.46c-0.9,0-1.06-0.59-1.06-1.36
		V8.86h0.88v1.4c0,0.33,0.01,0.76,0.46,0.76s0.53-0.36,0.53-0.73V8.86h0.88V11.73z"/>
	<path id="Trazado_357" class="st0" d="M-58.76,8.86h0.81v0.38h0.01c0.21-0.28,0.53-0.44,0.88-0.45c0.76-0.02,1.39,0.58,1.41,1.33
		c0,0.05,0,0.1,0,0.14c0.07,0.77-0.49,1.45-1.26,1.52c-0.02,0-0.03,0-0.05,0c-0.35,0.03-0.68-0.11-0.91-0.38h-0.01v1.65h-0.88
		L-58.76,8.86z M-57.24,11.02c0.4,0.01,0.73-0.31,0.74-0.71c0.01-0.4-0.31-0.73-0.71-0.74s-0.73,0.31-0.74,0.71
		c0,0.01,0,0.01,0,0.02c-0.03,0.37,0.24,0.69,0.61,0.72C-57.31,11.02-57.27,11.02-57.24,11.02"/>
	<path id="Trazado_358" class="st0" d="M-53.65,8.79c0.83,0.05,1.46,0.76,1.42,1.59c-0.05,0.83-0.76,1.46-1.59,1.42
		c-0.8-0.05-1.42-0.7-1.42-1.5c-0.01-0.83,0.66-1.5,1.48-1.51C-53.72,8.79-53.68,8.79-53.65,8.79 M-53.65,11.02
		c0.4,0.01,0.73-0.31,0.74-0.71c0.01-0.4-0.31-0.73-0.71-0.74c-0.4-0.01-0.73,0.31-0.74,0.71c0,0.01,0,0.01,0,0.02
		c-0.03,0.37,0.24,0.69,0.61,0.72C-53.71,11.02-53.68,11.02-53.65,11.02"/>
	<path id="Trazado_359" class="st0" d="M-46.79,11.73h-0.81v-0.38h-0.01c-0.21,0.28-0.53,0.44-0.88,0.45
		c-0.76,0.02-1.39-0.58-1.41-1.34c0-0.05,0-0.09,0-0.14c-0.07-0.77,0.49-1.45,1.26-1.52c0.02,0,0.03,0,0.05,0
		c0.35-0.03,0.68,0.11,0.91,0.38h0.01v-1.9h0.88L-46.79,11.73z M-48.31,9.57c-0.4-0.01-0.73,0.31-0.74,0.71
		c-0.01,0.4,0.31,0.73,0.71,0.74c0.4,0.01,0.73-0.31,0.74-0.71c0-0.01,0-0.01,0-0.02c0.03-0.37-0.24-0.69-0.61-0.72
		C-48.24,9.57-48.28,9.57-48.31,9.57"/>
	<path id="Trazado_360" class="st0" d="M-43.37,11.23c-0.3,0.36-0.74,0.57-1.21,0.57c-0.83,0.05-1.54-0.59-1.59-1.42
		c-0.05-0.83,0.59-1.54,1.42-1.59c0.06,0,0.11,0,0.17,0c0.74-0.01,1.34,0.58,1.35,1.32c0,0.06,0,0.13-0.01,0.19v0.28h-2.05
		c0.05,0.32,0.34,0.56,0.67,0.55c0.26,0,0.49-0.13,0.63-0.35L-43.37,11.23z M-44.12,9.97c0.01-0.29-0.23-0.54-0.52-0.54
		c-0.01,0-0.02,0-0.02,0c-0.32-0.02-0.6,0.22-0.62,0.54H-44.12z"/>
	<path id="Trazado_361" class="st0" d="M-40.84,7.56h1.39l0.96,2.72h0.01l0.97-2.72h1.39v4.17h-0.92v-3.2h-0.01l-1.1,3.2h-0.7
		l-1.05-3.2h-0.01v3.2h-0.92L-40.84,7.56z"/>
	<path id="Trazado_362" class="st0" d="M-32.68,11.23c-0.3,0.36-0.74,0.57-1.21,0.57c-0.83,0.05-1.54-0.59-1.59-1.42
		c-0.05-0.83,0.59-1.54,1.42-1.59c0.06,0,0.11,0,0.17,0c0.74-0.01,1.34,0.58,1.36,1.31c0,0.06,0,0.13-0.01,0.19v0.28h-2.05
		c0.05,0.32,0.34,0.56,0.67,0.55c0.26,0,0.49-0.13,0.63-0.35L-32.68,11.23z M-33.43,9.97c0.01-0.29-0.23-0.54-0.52-0.54
		c-0.01,0-0.02,0-0.02,0c-0.32-0.02-0.6,0.22-0.62,0.54H-33.43z"/>
	<path id="Trazado_363" class="st0" d="M-29.01,11.73h-0.81v-0.38h-0.01c-0.21,0.28-0.53,0.44-0.88,0.45
		c-0.76,0.02-1.39-0.58-1.41-1.34c0-0.05,0-0.09,0-0.14c-0.07-0.77,0.49-1.45,1.26-1.52c0.02,0,0.03,0,0.05,0
		c0.35-0.03,0.69,0.11,0.91,0.38h0.01v-1.9H-29L-29.01,11.73z M-30.53,9.57c-0.4-0.01-0.73,0.31-0.74,0.71
		c-0.01,0.4,0.31,0.73,0.71,0.74s0.73-0.31,0.74-0.71c0-0.01,0-0.01,0-0.02c0.03-0.37-0.24-0.69-0.61-0.72
		C-30.46,9.57-30.49,9.57-30.53,9.57"/>
	<path id="Trazado_364" class="st0" d="M-27.85,7.45c0.28,0,0.51,0.23,0.51,0.51c0,0.28-0.23,0.51-0.51,0.51
		c-0.28,0-0.51-0.23-0.51-0.51v0C-28.36,7.68-28.13,7.45-27.85,7.45 M-28.29,8.86h0.88v2.87h-0.88V8.86z"/>
	<path id="Trazado_365" class="st0" d="M-24.83,9.79c-0.1-0.14-0.26-0.22-0.44-0.22c-0.4,0-0.73,0.32-0.73,0.73s0.32,0.73,0.73,0.73
		c0.17,0,0.33-0.08,0.44-0.22l0.58,0.61c-0.28,0.26-0.64,0.39-1.02,0.38c-0.83,0.05-1.54-0.59-1.59-1.42
		c-0.05-0.83,0.59-1.54,1.42-1.59c0.06,0,0.11,0,0.17,0c0.38-0.01,0.74,0.13,1.02,0.38L-24.83,9.79z"/>
	<path id="Trazado_366" class="st0" d="M-23.48,7.45c0.28,0,0.51,0.23,0.51,0.51c0,0.28-0.23,0.51-0.51,0.51
		c-0.28,0-0.51-0.23-0.51-0.51C-23.99,7.68-23.76,7.45-23.48,7.45 M-23.92,8.86h0.88v2.87h-0.88V8.86z"/>
	<path id="Trazado_367" class="st0" d="M-22.4,8.86h0.85v0.39h0.01c0.17-0.3,0.49-0.47,0.84-0.46c0.9,0,1.06,0.59,1.06,1.36v1.58
		h-0.88v-1.4c0-0.33-0.01-0.75-0.46-0.75s-0.53,0.36-0.53,0.73v1.43h-0.88L-22.4,8.86z"/>
	<path id="Trazado_368" class="st0" d="M-17.22,11.37h-0.02c-0.21,0.29-0.55,0.45-0.91,0.43c-0.5,0.06-0.96-0.31-1.01-0.81
		c0-0.02,0-0.05-0.01-0.07c0-0.99,1.2-1.01,1.94-1.01c-0.01-0.29-0.25-0.52-0.54-0.51c-0.01,0-0.02,0-0.03,0
		c-0.28,0-0.54,0.13-0.72,0.34l-0.47-0.49c0.35-0.31,0.8-0.47,1.26-0.46c1.03,0,1.31,0.52,1.31,1.48v1.46h-0.81L-17.22,11.37z
		 M-17.43,10.48c-0.27,0-0.87,0.02-0.87,0.41c0,0.21,0.22,0.31,0.42,0.31c0.35,0,0.67-0.18,0.67-0.54v-0.19L-17.43,10.48z"/>
	<path id="Trazado_369" class="st0" d="M-13.99,7.56h1.55c0.87,0,1.59,0.28,1.59,1.27s-0.67,1.28-1.54,1.28h-0.67v1.63h-0.92
		L-13.99,7.56z M-13.07,9.33h0.61c0.32,0,0.65-0.11,0.65-0.5c0-0.43-0.44-0.49-0.79-0.49h-0.47L-13.07,9.33z"/>
	<path id="Trazado_370" class="st0" d="M-10.39,8.86h0.88v0.46h0.01C-9.36,9-9.03,8.79-8.67,8.79c0.1,0,0.2,0.01,0.29,0.03v0.81
		C-8.5,9.6-8.63,9.58-8.76,9.57c-0.67,0-0.75,0.39-0.75,0.96v1.2h-0.88L-10.39,8.86z"/>
	<path id="Trazado_371" class="st0" d="M-7.54,7.45c0.28,0,0.51,0.23,0.51,0.51c0,0.28-0.23,0.51-0.51,0.51
		c-0.28,0-0.51-0.23-0.51-0.51v0C-8.05,7.68-7.83,7.45-7.54,7.45 M-7.98,8.86h0.88v2.86h-0.89L-7.98,8.86z"/>
	<path id="Trazado_372" class="st0" d="M-6.76,8.86h0.95l0.73,1.95h0.01l0.67-1.95h0.89l-1.14,2.87h-0.94L-6.76,8.86z"/>
	<path id="Trazado_373" class="st0" d="M-1.39,11.37H-1.4c-0.21,0.29-0.55,0.45-0.91,0.43c-0.5,0.06-0.96-0.31-1.02-0.81
		c0-0.02,0-0.05-0.01-0.07c0-0.99,1.2-1.01,1.94-1.01C-1.4,9.62-1.64,9.39-1.93,9.39c-0.01,0-0.02,0-0.03,0
		c-0.28,0-0.54,0.13-0.72,0.34l-0.47-0.49c0.35-0.31,0.8-0.47,1.26-0.46c1.03,0,1.31,0.52,1.31,1.48v1.46h-0.81L-1.39,11.37z
		 M-1.61,10.48c-0.27,0-0.87,0.02-0.87,0.41c0,0.21,0.22,0.31,0.42,0.31c0.35,0,0.67-0.18,0.67-0.54v-0.19L-1.61,10.48z"/>
	<path id="Trazado_374" class="st0" d="M2.98,11.73H2.17v-0.38H2.16c-0.21,0.28-0.53,0.44-0.88,0.45c-0.76,0.02-1.39-0.58-1.41-1.34
		c0-0.05,0-0.09,0-0.14C-0.2,9.55,0.37,8.87,1.14,8.8c0.02,0,0.03,0,0.05,0C1.53,8.76,1.87,8.9,2.09,9.17H2.1v-1.9h0.88L2.98,11.73z
		 M1.46,9.57c-0.4-0.01-0.73,0.31-0.74,0.71c-0.01,0.4,0.31,0.73,0.71,0.74s0.73-0.31,0.74-0.71c0-0.01,0-0.01,0-0.02
		C2.2,9.93,1.93,9.6,1.56,9.57C1.53,9.57,1.49,9.57,1.46,9.57"/>
	<path id="Trazado_375" class="st0" d="M5.49,11.37H5.47c-0.21,0.29-0.55,0.45-0.91,0.43c-0.5,0.06-0.96-0.31-1.01-0.81
		c0-0.02,0-0.05-0.01-0.07c0-0.99,1.2-1.01,1.94-1.01C5.48,9.62,5.24,9.39,4.95,9.39c-0.01,0-0.02,0-0.03,0
		c-0.28,0-0.54,0.13-0.72,0.34L3.73,9.25c0.35-0.31,0.8-0.47,1.26-0.46c1.03,0,1.31,0.52,1.31,1.48v1.46H5.49L5.49,11.37z
		 M5.27,10.48C5,10.48,4.4,10.5,4.4,10.89c0,0.21,0.22,0.31,0.42,0.31c0.35,0,0.67-0.18,0.67-0.54v-0.19L5.27,10.48z"/>
</g>
</svg>
